<svg width="50" height="43" viewBox="0 0 50 43" fill="none" xmlns="http://www.w3.org/2000/svg">
<path d="M45.3704 6.48148H37.5L35.625 1.22685C35.4955 0.867292 35.2581 0.556492 34.9453 0.336907C34.6325 0.117323 34.2595 -0.000337163 33.8773 7.25711e-07H16.1227C15.3414 7.25711e-07 14.6412 0.491899 14.3808 1.22685L12.5 6.48148H4.62963C2.07176 6.48148 0 8.55324 0 11.1111V37.5C0 40.0579 2.07176 42.1296 4.62963 42.1296H45.3704C47.9282 42.1296 50 40.0579 50 37.5V11.1111C50 8.55324 47.9282 6.48148 45.3704 6.48148ZM25 32.8704C19.8843 32.8704 15.7407 28.7269 15.7407 23.6111C15.7407 18.4954 19.8843 14.3519 25 14.3519C30.1157 14.3519 34.2593 18.4954 34.2593 23.6111C34.2593 28.7269 30.1157 32.8704 25 32.8704ZM19.4444 23.6111C19.4444 25.0845 20.0298 26.4976 21.0716 27.5395C22.1135 28.5814 23.5266 29.1667 25 29.1667C26.4734 29.1667 27.8865 28.5814 28.9284 27.5395C29.9702 26.4976 30.5556 25.0845 30.5556 23.6111C30.5556 22.1377 29.9702 20.7246 28.9284 19.6827C27.8865 18.6409 26.4734 18.0556 25 18.0556C23.5266 18.0556 22.1135 18.6409 21.0716 19.6827C20.0298 20.7246 19.4444 22.1377 19.4444 23.6111Z" fill="#009FE3"/>
</svg>
