<svg width="50" height="43" viewBox="0 0 50 43" fill="none" xmlns="http://www.w3.org/2000/svg">
<path d="M25 0.00372461C11.1939 0.00372461 0 7.59507 0 16.959C0 22.316 3.6747 27.0883 9.39576 30.1941C8.5816 32.9498 6.95692 35.9979 3.81709 38.696C3.81709 38.696 11.1482 38.2007 16.3253 32.8437C16.6229 32.9182 16.9314 32.974 17.2326 33.0411C16.9392 32.1767 16.7868 31.269 16.7817 30.3542C16.7817 24.0365 23.6747 19.0892 32.4808 19.0892C38.8025 19.0892 44.1238 21.6513 46.6283 25.4311C48.7605 22.936 50 20.0444 50 16.9535C50 7.59135 38.8061 0 25 0V0.00372461ZM46.349 30.3579C46.349 25.163 40.1424 20.9493 32.4754 20.9493C24.8175 20.9493 18.6053 25.1648 18.6053 30.3598C18.6053 35.5548 24.8175 39.7685 32.479 39.7685C34.1731 39.7685 35.7886 39.5525 37.291 39.1726C40.1625 42.1481 44.2278 42.4218 44.2278 42.4218C42.4881 40.9248 41.5882 39.2322 41.1355 37.7035C44.3081 35.9812 46.349 33.3334 46.349 30.3598V30.3579Z" fill="#009FE3"/>
</svg>
