<svg width="42" height="51" viewBox="0 0 42 51" fill="none" xmlns="http://www.w3.org/2000/svg">
<path d="M23.5608 38.0561V46.5577H28.8853C26.7916 43.848 24.7191 40.7768 23.5608 38.0561ZM30.3196 0.000172655H6.10027C4.13425 0.000172655 2.54028 1.59414 2.54028 3.56046V46.5578H13.9107V36.6001C13.9107 35.9519 14.4419 35.4207 15.1012 35.4207L22.37 35.4203C22.5083 35.4203 22.6356 35.4415 22.7526 35.4839C22.6784 35.0698 22.6356 34.6765 22.6356 34.3044C22.6356 32.5404 23.0819 30.8824 23.8685 29.4264V26.0896C23.8685 25.367 24.4531 24.7824 25.1756 24.7824H29.0333C30.2343 24.2831 31.5521 24.0175 32.9334 24.0175C33.252 24.0175 33.5711 24.0281 33.8791 24.0599V3.55998C33.8791 1.59397 32.2851 0 30.3191 0L30.3196 0.000172655ZM12.5403 30.0108C12.5403 30.7333 11.9557 31.3179 11.2438 31.3179H7.31174C6.58922 31.3179 6.00461 30.7333 6.00461 30.0108V26.0895C6.00461 25.367 6.58923 24.7823 7.31174 24.7823H11.2438C11.9557 24.7823 12.5403 25.367 12.5403 26.0895V30.0108ZM12.5403 20.4783C12.5403 21.2008 11.9557 21.7854 11.2438 21.7854H7.31174C6.58922 21.7854 6.00461 21.2008 6.00461 20.4783V16.5463C6.00461 15.8344 6.58923 15.2497 7.31174 15.2497H11.2438C11.9557 15.2497 12.5403 15.8343 12.5403 16.5463V20.4783ZM12.5403 10.9351C12.5403 11.6576 11.9557 12.2422 11.2438 12.2422H7.31174C6.58922 12.2422 6.00461 11.6576 6.00461 10.9351V7.01372C6.00461 6.29121 6.58923 5.7066 7.31174 5.7066H11.2438C11.9557 5.7066 12.5403 6.29122 12.5403 7.01372V10.9351ZM21.4776 30.0108C21.4776 30.7333 20.893 31.3179 20.1705 31.3179H16.2492C15.5266 31.3179 14.942 30.7333 14.942 30.0108V26.0895C14.942 25.367 15.5267 24.7823 16.2492 24.7823H20.1705C20.893 24.7823 21.4776 25.367 21.4776 26.0895V30.0108ZM21.4776 20.4783C21.4776 21.2008 20.893 21.7854 20.1705 21.7854H16.2492C15.5266 21.7854 14.942 21.2008 14.942 20.4783V16.5463C14.942 15.8344 15.5267 15.2497 16.2492 15.2497H20.1705C20.893 15.2497 21.4776 15.8343 21.4776 16.5463V20.4783ZM21.4776 10.9351C21.4776 11.6576 20.893 12.2422 20.1705 12.2422H16.2492C15.5266 12.2422 14.942 11.6576 14.942 10.9351V7.01372C14.942 6.29121 15.5267 5.7066 16.2492 5.7066H20.1705C20.893 5.7066 21.4776 6.29122 21.4776 7.01372V10.9351ZM30.4044 20.4783C30.4044 21.2008 29.8198 21.7854 29.0973 21.7854H25.1759C24.4534 21.7854 23.8688 21.2008 23.8688 20.4783V16.5463C23.8688 15.8344 24.4534 15.2497 25.1759 15.2497H29.0973C29.8198 15.2497 30.4044 15.8343 30.4044 16.5463V20.4783ZM30.4044 10.9351C30.4044 11.6576 29.8198 12.2422 29.0973 12.2422H25.1759C24.4534 12.2422 23.8688 11.6576 23.8688 10.9351V7.01372C23.8688 6.29121 24.4534 5.7066 25.1759 5.7066H29.0973C29.8198 5.7066 30.4044 6.29122 30.4044 7.01372V10.9351ZM32.9337 31.0629C31.1379 31.0629 29.6818 32.519 29.6818 34.3042C29.6818 36.1001 31.1379 37.5561 32.9337 37.5561C33.2634 37.5561 33.582 37.5031 33.8794 37.4072V31.2114C33.582 31.1159 33.263 31.0629 32.9337 31.0629V31.0629Z" fill="#009FE3"/>
<path d="M36.4087 48.8321V50.3305C36.4087 50.7026 36.1113 51 35.7392 51H0.669472C0.297412 51 0 50.7026 0 50.3305V48.8321C0 48.4601 0.297412 48.152 0.669472 48.152H30.1491C30.2768 48.3115 30.3934 48.4604 30.5211 48.609C31.1057 49.3315 31.9878 49.746 32.9334 49.746C33.8685 49.746 34.7399 49.3421 35.3457 48.609C35.4628 48.4604 35.5901 48.3115 35.7178 48.152H35.739C36.111 48.152 36.4084 48.4604 36.4084 48.8321H36.4087Z" fill="#009FE3"/>
<path d="M32.9338 25.6115C28.1304 25.6115 24.2302 29.5011 24.2302 34.3046C24.2302 38.0028 29.3739 44.6983 31.7544 47.599C32.3602 48.3428 33.4972 48.3428 34.1137 47.599C36.4835 44.6975 41.6167 38.0028 41.6167 34.3046C41.6163 29.5011 37.7373 25.6115 32.9339 25.6115H32.9338ZM32.9338 39.1504C30.2559 39.1504 28.0879 36.9825 28.0879 34.3046C28.0879 31.6479 30.2559 29.4693 32.9338 29.4693C35.5905 29.4693 37.7585 31.6479 37.7585 34.3046C37.7585 36.9825 35.5905 39.1504 32.9338 39.1504Z" fill="#009FE3"/>
</svg>
