<svg width="50" height="37" viewBox="0 0 50 37" fill="none" xmlns="http://www.w3.org/2000/svg">
<path d="M42.0455 9.09091H36.3636V4.54545C36.3636 2.04545 34.3182 0 31.8182 0H4.54545C2.04545 0 0 2.04545 0 4.54545V25C0 27.5 2.04545 29.5455 4.54545 29.5455C4.54545 33.3182 7.59091 36.3636 11.3636 36.3636C15.1364 36.3636 18.1818 33.3182 18.1818 29.5455H31.8182C31.8182 33.3182 34.8636 36.3636 38.6364 36.3636C42.4091 36.3636 45.4545 33.3182 45.4545 29.5455H47.7273C48.9773 29.5455 50 28.5227 50 27.2727V19.7045C50 18.7273 49.6818 17.7727 49.0909 16.9773L43.8636 10C43.4318 9.43182 42.75 9.09091 42.0455 9.09091ZM11.3636 31.8182C10.1136 31.8182 9.09091 30.7955 9.09091 29.5455C9.09091 28.2955 10.1136 27.2727 11.3636 27.2727C12.6136 27.2727 13.6364 28.2955 13.6364 29.5455C13.6364 30.7955 12.6136 31.8182 11.3636 31.8182ZM42.0455 12.5L46.5 18.1818H36.3636V12.5H42.0455ZM38.6364 31.8182C37.3864 31.8182 36.3636 30.7955 36.3636 29.5455C36.3636 28.2955 37.3864 27.2727 38.6364 27.2727C39.8864 27.2727 40.9091 28.2955 40.9091 29.5455C40.9091 30.7955 39.8864 31.8182 38.6364 31.8182Z" fill="#009FE3"/>
</svg>
